<svg width="40" height="40" viewBox="0 0 40 40" fill="none" xmlns="http://www.w3.org/2000/svg">
<rect x="0.5" y="0.5" width="39" height="39" rx="19.5" fill="#E4BA9E" fill-opacity="0.16"/>
<path d="M21.247 16.3172C21.8592 15.8851 22.2581 15.1789 22.2581 14.381C22.2581 13.066 21.1749 12 19.8387 12C18.5025 12 17.4194 13.066 17.4194 14.381C17.4194 15.212 17.852 15.9436 18.5077 16.3695C17.2631 17.5548 15.8498 17.9705 14.8317 18.0551C14.8364 17.995 14.8387 17.9343 14.8387 17.873C14.8387 16.5581 13.7555 15.4921 12.4194 15.4921C11.0832 15.4921 10 16.5581 10 17.873C10 19.188 11.0832 20.254 12.4194 20.254C12.5598 20.254 12.6975 20.2422 12.8315 20.2196L14.7971 26.8692C14.9173 27.2759 15.296 27.5556 15.7263 27.5556H24.0982C24.5352 27.5556 24.918 27.2673 25.0323 26.8521L26.8763 20.1515C27.0992 20.2181 27.3357 20.254 27.5806 20.254C28.9168 20.254 30 19.188 30 17.873C30 16.5581 28.9168 15.4921 27.5806 15.4921C26.2824 15.4921 25.2229 16.4985 25.1639 17.7618C23.4637 18.0199 22.047 17.1174 21.247 16.3172Z" stroke="#E4BA9E" stroke-width="1.2"/>
<path d="M19.1558 25H20.8442L23 20H21.5692L20.6534 22.4359C20.434 22.9892 20.2814 23.4885 20.0525 24.0486H20.0048C19.7854 23.4885 19.6328 22.9892 19.4134 22.4359L18.4785 20H17L19.1558 25Z" fill="#E4BA9E"/>
<rect x="0.5" y="0.5" width="39" height="39" rx="19.5" stroke="#E4BA9E"/>
</svg>
