<svg width="40" height="40" viewBox="0 0 40 40" fill="none" xmlns="http://www.w3.org/2000/svg">
<rect x="0.5" y="0.5" width="39" height="39" rx="19.5" fill="#E4BA9E" fill-opacity="0.16"/>
<path d="M11 18C11 17.0572 11 16.5858 11.2929 16.2929C11.5858 16 12.0572 16 13 16H27C27.9428 16 28.4142 16 28.7071 16.2929C29 16.5858 29 17.0572 29 18V19.5C29 19.9659 29 20.1989 28.9239 20.3827C28.8224 20.6277 28.6277 20.8224 28.3827 20.9239C28.1989 21 27.9659 21 27.5 21V21C27.0341 21 26.8011 21 26.6173 21.0761C26.3723 21.1776 26.1776 21.3723 26.0761 21.6173C26 21.8011 26 22.0341 26 22.5V26C26 26.9428 26 27.4142 25.7071 27.7071C25.4142 28 24.9428 28 24 28H16C15.0572 28 14.5858 28 14.2929 27.7071C14 27.4142 14 26.9428 14 26V22.5C14 22.0341 14 21.8011 13.9239 21.6173C13.8224 21.3723 13.6277 21.1776 13.3827 21.0761C13.1989 21 12.9659 21 12.5 21V21C12.0341 21 11.8011 21 11.6173 20.9239C11.3723 20.8224 11.1776 20.6277 11.0761 20.3827C11 20.1989 11 19.9659 11 19.5V18Z" stroke="#E4BA9E" stroke-width="1.2"/>
<path d="M13 21H27" stroke="#E4BA9E" stroke-width="1.2" stroke-linecap="round"/>
<path d="M20 15L20 28" stroke="#E4BA9E" stroke-width="1.2" stroke-linecap="round"/>
<path d="M20 15L19.1214 14.1214C18.0551 13.0551 16.7552 12.2517 15.3246 11.7749V11.7749C14.181 11.3937 13 12.2449 13 13.4503V13.6325C13 14.4491 13.5226 15.1742 14.2974 15.4325L16 16" stroke="#E4BA9E" stroke-width="1.2" stroke-linecap="round"/>
<path d="M20 15L20.8786 14.1214C21.9449 13.0551 23.2448 12.2517 24.6754 11.7749V11.7749C25.819 11.3937 27 12.2449 27 13.4503V13.6325C27 14.4491 26.4774 15.1742 25.7026 15.4325L24 16" stroke="#E4BA9E" stroke-width="1.2" stroke-linecap="round"/>
<rect x="0.5" y="0.5" width="39" height="39" rx="19.5" stroke="#E4BA9E"/>
</svg>
