<svg width="40" height="40" viewBox="0 0 40 40" fill="none" xmlns="http://www.w3.org/2000/svg">
<rect x="0.5" y="0.5" width="39" height="39" rx="19.5" fill="#BE8863" fill-opacity="0.16"/>
<path fill-rule="evenodd" clip-rule="evenodd" d="M18.5657 13.9343L19.1314 14.5L18.5657 15.0657C18.2533 15.3781 17.7467 15.3781 17.4343 15.0657C17.1219 14.7533 17.1219 14.2467 17.4343 13.9343C17.7467 13.6219 18.2533 13.6219 18.5657 13.9343ZM16.5858 13.0858C17.3668 12.3047 18.6332 12.3047 19.4142 13.0858L20 13.6716L20.5858 13.0858C21.3668 12.3047 22.6332 12.3047 23.4142 13.0858C24.1953 13.8668 24.1953 15.1332 23.4142 15.9142C22.6332 16.6953 21.3668 16.6953 20.5858 15.9142L20 15.3284L19.4142 15.9142C18.6332 16.6953 17.3668 16.6953 16.5858 15.9142C15.8047 15.1332 15.8047 13.8668 16.5858 13.0858ZM21.4343 13.9343L20.8686 14.5L21.4343 15.0657C21.7467 15.3781 22.2533 15.3781 22.5657 15.0657C22.8781 14.7533 22.8781 14.2467 22.5657 13.9343C22.2533 13.6219 21.7467 13.6219 21.4343 13.9343Z" fill="#BE8863"/>
<circle cx="20.1" cy="18.6" r="0.6" fill="#BE8863"/>
<circle cx="20.1" cy="21.6" r="0.6" fill="#BE8863"/>
<circle cx="20.1" cy="24.6" r="0.6" fill="#BE8863"/>
<path d="M20 12.9804C21.1846 10.9402 23.3442 9.03594 25.9739 10.5403C29.8088 12.7341 27.3526 18.4295 25.5144 22.111C25.9743 22.6366 27.3529 24.2143 27.8124 26.8439C26.1276 27.8958 21.8383 30 20 30C18.1617 30 13.8724 27.8958 12.1876 26.844C12.6471 24.2143 14.0257 22.6366 14.4856 22.111C12.6474 18.4295 10.1912 12.7341 14.0261 10.5403C16.6558 9.03594 18.8154 10.9402 20 12.9804Z" stroke="#BE8863" stroke-width="1.2" stroke-linecap="round"/>
<rect x="0.5" y="0.5" width="39" height="39" rx="19.5" stroke="#BE8863"/>
</svg>
