<svg width="40" height="40" viewBox="0 0 40 40" fill="none" xmlns="http://www.w3.org/2000/svg">
<rect x="0.5" y="0.5" width="39" height="39" rx="19.5" fill="#BE8863" fill-opacity="0.16"/>
<path d="M22.25 12H17.75C14.568 12 12.977 12 11.9885 13.0042C11 14.0084 11 15.6247 11 18.8571V21.1429C11 24.3753 11 25.9916 11.9885 26.9958C12.977 28 14.568 28 17.75 28H22.25C25.432 28 27.023 28 28.0115 26.9958C29 25.9916 29 24.3753 29 21.1429V18.8571C29 15.6247 29 14.0084 28.0115 13.0042C27.023 12 25.432 12 22.25 12Z" stroke="#BE8863" stroke-width="1.2"/>
<path d="M14 24H15.3395V20.9771H17.8738V24H19.2043V17H17.8738V19.7584H15.3395V17H14V24Z" fill="#BE8863"/>
<path d="M20.85 24H22.7598C24.7329 24 26 22.8286 26 20.4764C26 18.1147 24.7329 17 22.6874 17H20.85V24ZM22.1896 22.8758V18.1242H22.6059C23.8549 18.1242 24.6333 18.7665 24.6333 20.4764C24.6333 22.1768 23.8549 22.8758 22.6059 22.8758H22.1896Z" fill="#BE8863"/>
<rect x="0.5" y="0.5" width="39" height="39" rx="19.5" stroke="#BE8863"/>
</svg>
