<svg width="40" height="40" viewBox="0 0 40 40" fill="none" xmlns="http://www.w3.org/2000/svg">
<rect x="0.5" y="0.5" width="39" height="39" rx="19.5" fill="#E4BA9E" fill-opacity="0.16"/>
<path fill-rule="evenodd" clip-rule="evenodd" d="M20 18.8C20.9941 18.8 21.8 17.9941 21.8 17C21.8 16.0059 20.9941 15.2 20 15.2C19.0059 15.2 18.2 16.0059 18.2 17C18.2 17.9941 19.0059 18.8 20 18.8ZM20 20C21.6569 20 23 18.6569 23 17C23 15.3431 21.6569 14 20 14C18.3431 14 17 15.3431 17 17C17 18.6569 18.3431 20 20 20Z" fill="#E4BA9E"/>
<path fill-rule="evenodd" clip-rule="evenodd" d="M26 19.8C26.4418 19.8 26.8 19.4418 26.8 19C26.8 18.5582 26.4418 18.2 26 18.2C25.5582 18.2 25.2 18.5582 25.2 19C25.2 19.4418 25.5582 19.8 26 19.8ZM26 21C27.1046 21 28 20.1046 28 19C28 17.8954 27.1046 17 26 17C24.8954 17 24 17.8954 24 19C24 20.1046 24.8954 21 26 21Z" fill="#E4BA9E"/>
<path fill-rule="evenodd" clip-rule="evenodd" d="M14.5 19.8C14.0582 19.8 13.7 19.4418 13.7 19C13.7 18.5582 14.0582 18.2 14.5 18.2C14.9418 18.2 15.3 18.5582 15.3 19C15.3 19.4418 14.9418 19.8 14.5 19.8ZM14.5 21C13.3954 21 12.5 20.1046 12.5 19C12.5 17.8954 13.3954 17 14.5 17C15.6046 17 16.5 17.8954 16.5 19C16.5 20.1046 15.6046 21 14.5 21Z" fill="#E4BA9E"/>
<path d="M24.6433 24.1418C24.8734 24.7162 25 25.3433 25 26H23.8C23.8 23.9013 22.0987 22.2 20 22.2C17.9013 22.2 16.2 23.9013 16.2 26H15C15 25.3435 15.1265 24.7165 15.3566 24.1421C14.9381 23.5709 14.2624 23.2 13.5 23.2C12.2297 23.2 11.2 24.2297 11.2 25.5C11.2 25.6717 11.2188 25.839 11.2545 26H10.0354C10.0121 25.8367 10 25.6698 10 25.5C10 23.567 11.567 22 13.5 22C14.4683 22 15.3447 22.3932 15.9783 23.0286C16.8891 21.7979 18.3514 21 20 21C21.6485 21 23.1107 21.7978 24.0215 23.0284C24.6551 22.3931 25.5315 22 26.4996 22C28.4326 22 29.9996 23.567 29.9996 25.5C29.9996 25.6698 29.9875 25.8367 29.9642 26H28.7451C28.7808 25.839 28.7996 25.6717 28.7996 25.5C28.7996 24.2297 27.7699 23.2 26.4996 23.2C25.7374 23.2 25.0618 23.5708 24.6433 24.1418Z" fill="#E4BA9E"/>
<rect x="0.5" y="0.5" width="39" height="39" rx="19.5" stroke="#E4BA9E"/>
</svg>
