<svg width="40" height="40" viewBox="0 0 40 40" fill="none" xmlns="http://www.w3.org/2000/svg">
<rect x="0.5" y="0.5" width="39" height="39" rx="19.5" fill="#BE8863" fill-opacity="0.16"/>
<path fill-rule="evenodd" clip-rule="evenodd" d="M20 11C17.7632 11 15.8393 12.3353 14.9799 14.2501C14.8973 14.4342 14.8387 14.5645 14.7936 14.6594C14.7713 14.7064 14.7545 14.7398 14.7417 14.7637C14.7321 14.7815 14.727 14.7897 14.7259 14.7915C14.7257 14.7917 14.7257 14.7918 14.7256 14.7919C14.6566 14.8883 14.6202 14.9176 14.5989 14.9314C14.5776 14.9452 14.5356 14.9666 14.4183 14.9902C14.3828 14.9973 14.309 15 14 15C12.067 15 10.5 16.567 10.5 18.5C10.5 20.433 12.067 22 14 22H14.126C14.2173 21.6452 14.3561 21.3095 14.5351 21H14C12.6193 21 11.5 19.8807 11.5 18.5C11.5 17.1193 12.6193 16 14 16L14.0536 16C14.2796 16.0002 14.4674 16.0004 14.6156 15.9705C14.7964 15.9341 14.9742 15.8797 15.1423 15.7709C15.3104 15.6621 15.4329 15.5222 15.5401 15.3721C15.598 15.2911 15.6497 15.1878 15.6967 15.0888C15.7472 14.9828 15.8102 14.8423 15.8896 14.6654L15.8896 14.6654L15.8922 14.6595C16.5962 13.0909 18.1713 12 20 12C21.8287 12 23.4038 13.0909 24.1078 14.6595L24.1104 14.6653C24.1898 14.8422 24.2528 14.9827 24.3033 15.0888C24.3503 15.1878 24.402 15.2911 24.4599 15.3721C24.5671 15.5222 24.6896 15.6621 24.8577 15.7709C25.0258 15.8797 25.2036 15.9341 25.3844 15.9705C25.5326 16.0004 25.7204 16.0002 25.9464 16L26 16C27.3807 16 28.5 17.1193 28.5 18.5C28.5 19.5252 27.883 20.4062 27 20.792V21V21.8551C28.4457 21.4248 29.5 20.0855 29.5 18.5C29.5 16.567 27.933 15 26 15C25.691 15 25.6172 14.9973 25.5817 14.9902C25.4644 14.9666 25.4224 14.9452 25.4011 14.9314C25.3798 14.9176 25.3434 14.8883 25.2744 14.7919C25.2743 14.7918 25.2743 14.7917 25.2741 14.7915C25.273 14.7897 25.2679 14.7815 25.2583 14.7637C25.2455 14.7398 25.2287 14.7064 25.2064 14.6594C25.1613 14.5645 25.1027 14.4342 25.0201 14.2501C24.1607 12.3353 22.2368 11 20 11ZM25.2744 14.7919C25.2741 14.7915 25.2738 14.7911 25.2735 14.7907C25.2739 14.7913 25.2742 14.7916 25.2743 14.7918C25.2744 14.7919 25.2744 14.7919 25.2744 14.7919Z" fill="#BE8863"/>
<path fill-rule="evenodd" clip-rule="evenodd" d="M19.2727 16.6364C19.2727 17.3656 18.7957 17.9834 18.1367 18.1948V24.5682C18.1367 25.0828 18.5539 25.5 19.0685 25.5C19.5832 25.5 20.0004 25.0828 20.0004 24.5682V18.9318C20.0004 17.8649 20.8653 17 21.9322 17C22.9991 17 23.864 17.8649 23.864 18.9318V25.0778C24.5231 25.2892 25.0003 25.907 25.0003 26.6364C25.0003 27.5401 24.2676 28.2727 23.3639 28.2727C22.4602 28.2727 21.7275 27.5401 21.7275 26.6364C21.7275 25.907 22.2048 25.289 22.864 25.0778V18.9318C22.864 18.4172 22.4468 18 21.9322 18C21.4175 18 21.0004 18.4172 21.0004 18.9318V24.5682C21.0004 25.6351 20.1355 26.5 19.0685 26.5C18.0016 26.5 17.1367 25.6351 17.1367 24.5682V18.195C16.4773 17.9838 16 17.3659 16 16.6364C16 15.7326 16.7326 15 17.6364 15C18.5401 15 19.2727 15.7326 19.2727 16.6364ZM17.6364 17.2727C17.9878 17.2727 18.2727 16.9878 18.2727 16.6364C18.2727 16.2849 17.9878 16 17.6364 16C17.2849 16 17 16.2849 17 16.6364C17 16.9878 17.2849 17.2727 17.6364 17.2727ZM23.3639 26C23.0124 26 22.7275 26.2849 22.7275 26.6364C22.7275 26.9878 23.0124 27.2727 23.3639 27.2727C23.7154 27.2727 24.0003 26.9878 24.0003 26.6364C24.0003 26.2849 23.7154 26 23.3639 26Z" fill="#BE8863"/>
<rect x="0.5" y="0.5" width="39" height="39" rx="19.5" stroke="#BE8863"/>
</svg>
