<svg width="40" height="40" viewBox="0 0 40 40" fill="none" xmlns="http://www.w3.org/2000/svg">
<rect x="0.5" y="0.5" width="39" height="39" rx="19.5" fill="#BE8863" fill-opacity="0.16"/>
<path d="M11 14C11 13.0572 11 12.5858 11.2929 12.2929C11.5858 12 12.0572 12 13 12H27C27.9428 12 28.4142 12 28.7071 12.2929C29 12.5858 29 13.0572 29 14V17H11V14Z" stroke="#BE8863" stroke-linecap="round"/>
<path d="M29 26C29 26.9428 29 27.4142 28.7071 27.7071C28.4142 28 27.9428 28 27 28L13 28C12.0572 28 11.5858 28 11.2929 27.7071C11 27.4142 11 26.9428 11 26L11 17L29 17L29 26Z" stroke="#BE8863" stroke-linecap="round"/>
<path d="M19.382 20.1317L22.6265 21.7539L22.1793 22.6483L18.9348 21.0261L19.382 20.1317ZM22.6265 24.0794L19.382 25.7017L18.9348 24.8072L22.1793 23.185L22.6265 24.0794ZM18.5007 21.2944V24.5389H17.5007V21.2944H18.5007ZM19.382 25.7017C18.5177 26.1338 17.5007 25.5053 17.5007 24.5389H18.5007C18.5007 24.7619 18.7353 24.907 18.9348 24.8072L19.382 25.7017ZM22.6265 21.7539C23.5847 22.233 23.5847 23.6003 22.6265 24.0794L22.1793 23.185C22.4004 23.0744 22.4004 22.7589 22.1793 22.6483L22.6265 21.7539ZM18.9348 21.0261C18.7353 20.9264 18.5007 21.0714 18.5007 21.2944H17.5007C17.5007 20.328 18.5177 19.6995 19.382 20.1317L18.9348 21.0261Z" fill="#BE8863"/>
<path d="M26 12L24 17" stroke="#BE8863" stroke-width="1.2"/>
<path d="M21 12L19 17" stroke="#BE8863" stroke-width="1.2"/>
<path d="M16 12L14 17" stroke="#BE8863" stroke-width="1.2"/>
<rect x="0.5" y="0.5" width="39" height="39" rx="19.5" stroke="#BE8863"/>
</svg>
