<svg width="48" height="48" viewBox="0 0 48 48" fill="none" xmlns="http://www.w3.org/2000/svg">
<rect width="48" height="48" rx="10" fill="#2319DC"/>
<path d="M14.5898 24.6359C17.8007 23.9379 17.3819 20.1685 17.2423 19.3309C17.1027 18.0744 15.567 15.8407 13.4729 15.9803C10.8204 16.2595 10.5412 19.8893 10.5412 19.8893C10.262 21.7042 11.3788 25.334 14.5898 24.6359V24.6359ZM20.5929 18.214C22.4078 18.214 23.8038 16.1199 23.8038 13.607C23.8038 11.0941 22.4078 9 20.5929 9C18.778 9 17.3819 11.0941 17.3819 13.607C17.3819 16.2595 18.778 18.214 20.5929 18.214ZM28.1316 18.6328C30.5049 18.9121 32.0406 16.3991 32.3198 14.4447C32.599 12.4902 31.0634 10.2564 29.3881 9.97722C27.7128 9.5584 25.6187 12.2109 25.4791 14.0258C25.1999 16.1199 25.7583 18.214 28.1316 18.6328ZM37.4853 21.8438C37.4853 20.8665 36.7873 18.214 33.8555 18.214C31.0634 18.214 30.6446 20.8665 30.6446 22.6814C30.6446 24.4963 30.7842 26.8696 34.2743 26.8696C37.9041 26.5904 37.4853 22.6814 37.4853 21.8438V21.8438ZM33.9951 29.8014C33.9951 29.8014 30.3653 27.0092 28.2712 23.9379C25.3395 19.4705 21.2909 21.2854 19.8948 23.5191C18.4988 25.7528 16.4047 27.2885 16.1255 27.7073C15.8463 28.1261 11.6581 30.3598 12.6353 34.4084C13.6126 38.457 16.6839 38.3174 16.6839 38.3174C16.6839 38.3174 19.0572 38.5966 21.8493 37.8985C24.6415 37.3401 27.0148 38.0382 27.0148 38.0382C27.0148 38.0382 33.4367 40.1323 35.112 36.0837C36.6476 32.0351 33.9951 29.8014 33.9951 29.8014" fill="white" fill-opacity="0.6"/>
</svg>
