<svg width="48" height="48" viewBox="0 0 48 48" fill="none" xmlns="http://www.w3.org/2000/svg">
<rect width="48" height="48" rx="10" fill="#64BD43"/>
<path d="M20.1439 17.7501L8.6134 28.5047C7.69974 23.7884 7.70995 21.5068 9.30758 17.7501H20.1439Z" fill="white" fill-opacity="0.6"/>
<path d="M16.8619 22.2969L16.3055 38.0587C12.3293 35.3637 10.7215 33.7457 9.19531 29.9634L16.8619 22.2969Z" fill="white" fill-opacity="0.6"/>
<path d="M17.75 27.8477L28.5046 39.3883C23.7883 40.302 21.5067 40.2918 17.75 38.6941V27.8477V27.8477Z" fill="white" fill-opacity="0.6"/>
<path d="M22.2969 31.1328L38.0587 31.6892C35.3637 35.6654 33.7457 37.2732 29.9634 38.7994L22.2969 31.1328Z" fill="white" fill-opacity="0.6"/>
<path d="M27.8457 30.239L39.3864 19.4844C40.3 24.2007 40.2898 26.4823 38.6922 30.239H27.8457Z" fill="white" fill-opacity="0.6"/>
<path d="M31.1348 25.6974L31.6911 9.93555C35.6673 12.6306 37.2752 14.2486 38.8013 18.0309L31.1348 25.6974Z" fill="white" fill-opacity="0.6"/>
<path d="M30.2391 20.1439L19.4844 8.6134C24.2007 7.69974 26.4823 7.70995 30.2391 9.30758V20.1439Z" fill="white" fill-opacity="0.6"/>
<path d="M25.6974 16.8619L9.93555 16.3055C12.6306 12.3293 14.2486 10.7215 18.0309 9.19531L25.6974 16.8619Z" fill="white" fill-opacity="0.6"/>
</svg>
