<svg width="48" height="48" viewBox="0 0 48 48" fill="none" xmlns="http://www.w3.org/2000/svg">
<rect width="48" height="48" rx="10" fill="#838CD3"/>
<path fill-rule="evenodd" clip-rule="evenodd" d="M10.5377 19.1649C10.5 20.1033 10.5 21.2025 10.5 22.5V25.5C10.5 29.7426 10.5 31.864 11.818 33.182C13.136 34.5 15.2574 34.5 19.5 34.5H28.5C32.7426 34.5 34.864 34.5 36.182 33.182C37.5 31.864 37.5 29.7426 37.5 25.5V22.5C37.5 21.2025 37.5 20.1033 37.4623 19.1649L24.9713 26.1044C24.3672 26.4399 23.6328 26.4399 23.0287 26.1044L10.5377 19.1649ZM10.7512 17.0318C10.8312 17.0526 10.91 17.0838 10.9856 17.1258L24 24.356L37.0144 17.1258C37.09 17.0838 37.1688 17.0526 37.2488 17.0318C37.0635 16.0819 36.7415 15.3776 36.182 14.818C34.864 13.5 32.7426 13.5 28.5 13.5H19.5C15.2574 13.5 13.136 13.5 11.818 14.818C11.2585 15.3776 10.9365 16.0819 10.7512 17.0318Z" fill="white" fill-opacity="0.6"/>
</svg>
