<svg width="48" height="48" viewBox="0 0 48 48" fill="none" xmlns="http://www.w3.org/2000/svg">
<rect width="48" height="48" rx="10" fill="#5BAAE8"/>
<path fill-rule="evenodd" clip-rule="evenodd" d="M38.126 29.04C38.1062 26.9131 37.3144 25.7591 36.4062 24.2543C35.9969 23.6258 35.5244 23.2048 35.1155 22.5765C35.0518 22.2359 35.1848 21.9806 35.0898 21.0854C34.9986 19.7431 34.5278 19.223 34.4286 19.0586C34.4711 18.7017 34.3347 15.7598 33.3126 14.0194C30.1948 8.21556 24.2894 8.00383 23.5667 8H23.5597C22.837 8.00383 16.9316 8.21573 13.814 14.0194C12.7917 15.7596 12.6553 18.7017 12.6979 19.0586C12.5987 19.223 12.1279 19.7431 12.0368 21.0854C11.9418 21.9806 12.0748 22.2359 12.0112 22.5765C11.602 23.205 11.1294 23.6259 10.7203 24.2543C9.81183 25.7591 9.0201 26.9131 9.00043 29.04C8.98576 30.6257 9.3457 32.7885 10.4147 32.8182C10.7513 32.7903 11.0387 32.5576 11.6232 31.8755C11.7978 31.6703 12.4131 30.8086 12.5375 30.5695C12.6575 30.8994 12.9416 33.2003 14.9278 34.3988C12.8874 35.3991 11.8891 36.0318 11.8541 37.33C11.8968 38.081 12.7577 39.0795 14.341 39.5448C16.3353 40.1255 18.6551 40.1385 20.586 39.653C21.7277 39.3661 22.0713 39.0787 23.5632 38.2239C25.0553 39.0787 25.3988 39.3662 26.5404 39.653C28.4713 40.1383 30.791 40.1255 32.7854 39.5448C34.3686 39.0795 35.2295 38.081 35.2722 37.33C35.2373 36.0318 34.239 35.3991 32.1986 34.3988C34.1847 33.2004 34.4688 30.8996 34.5888 30.5695C34.7133 30.8086 35.3287 31.6703 35.5031 31.8755C36.0878 32.5577 36.375 32.7903 36.7116 32.8182C37.7806 32.7886 38.1407 30.6257 38.126 29.04Z" fill="white" fill-opacity="0.6"/>
</svg>
