<svg width="48" height="48" viewBox="0 0 48 48" fill="none" xmlns="http://www.w3.org/2000/svg">
<rect width="48" height="48" rx="10" fill="#FDC63E"/>
<path fill-rule="evenodd" clip-rule="evenodd" d="M23.2511 8.26075C23.4458 7.91308 23.9455 7.91308 24.1402 8.26075L29.3115 17.4934C29.3841 17.6229 29.5094 17.7144 29.6548 17.7439L39.9824 19.8409C40.3709 19.9197 40.5248 20.393 40.2572 20.6859L33.1242 28.4938C33.0245 28.6029 32.977 28.7499 32.9939 28.8968L33.0289 29.2019C29.1496 29.1426 25.3689 28.2311 23.6661 27.6089C23.5444 27.5644 23.5207 27.4073 23.6211 27.3253C25.3539 25.911 28.8563 23.0562 30.9066 21.3987C30.9962 21.3263 30.989 21.1877 30.8916 21.1262C29.3284 20.1386 27.5485 19.5508 23.1864 19.5508C19.996 19.5508 16.3545 20.839 14.5626 21.6626C14.4002 21.7373 14.4573 21.9656 14.636 21.963C21.4525 21.8644 24.6649 22.5482 25.4309 23.0537C25.5117 23.107 25.5034 23.2146 25.4267 23.2736C22.4451 25.5712 17.0648 30.005 15.7068 31.1331C15.5932 31.2275 15.6492 31.4088 15.7958 31.4266C22.7712 32.2737 29.2143 31.4179 33.1559 30.3077L33.3186 31.7243L34.2036 39.4303C34.249 39.8257 33.8453 40.1188 33.4843 39.9525L23.9086 35.5423C23.7734 35.4801 23.6179 35.4801 23.4827 35.5423L13.907 39.9525C13.546 40.1188 13.1423 39.8257 13.1877 39.4303L14.3974 28.8968C14.4143 28.7499 14.3668 28.6029 14.2671 28.4938L7.13411 20.6859C6.86655 20.393 7.02045 19.9197 7.40891 19.8409L17.7365 17.7439C17.8819 17.7144 18.0072 17.6229 18.0798 17.4934L23.2511 8.26075Z" fill="white" fill-opacity="0.6"/>
</svg>
