<svg width="48" height="48" viewBox="0 0 48 48" fill="none" xmlns="http://www.w3.org/2000/svg">
<rect width="48" height="48" rx="10" fill="#31CE6F"/>
<path fill-rule="evenodd" clip-rule="evenodd" d="M18.8673 9.00156C11.8396 8.89825 6 13.9367 6 19.879C6 23.3091 7.65354 26.2848 10.8543 28.4696C10.8543 28.4696 9.68124 32.2467 9.69793 32.3224C9.71461 32.3983 9.96992 32.5471 10.0588 32.4985C10.1476 32.4499 14.2994 30.0342 14.2994 30.0342C17.2748 31.0307 19.0898 30.7855 19.3996 30.7437C19.4211 30.7408 19.4353 30.7388 19.4422 30.7384C19.1247 29.8312 18.9166 28.4187 19.1535 27.0874C20.3939 20.1198 27.7056 17.9525 31.7128 18.3228C30.6063 13.2909 25.7998 9.10341 18.8673 9.00156ZM13.9826 14.7204C13.0607 14.7204 12.3135 15.4496 12.3135 16.3493C12.3135 17.2489 13.0607 17.9781 13.9826 17.9781C14.9045 17.9781 15.6519 17.2489 15.6519 16.3493C15.6519 15.4496 14.9045 14.7204 13.9826 14.7204ZM24.0877 14.7204C23.166 14.7204 22.4186 15.4496 22.4186 16.3493C22.4186 17.2489 23.166 17.9781 24.0877 17.9781C25.0096 17.9781 25.757 17.2489 25.757 16.3493C25.757 15.4496 25.0098 14.7204 24.0877 14.7204Z" fill="white" fill-opacity="0.6"/>
<path fill-rule="evenodd" clip-rule="evenodd" d="M42 28.1476C42 23.0568 36.9541 19.1575 31.1002 19.1575C24.902 19.1575 19.9585 23.1449 19.9585 28.2353C19.9585 33.335 24.6606 37.5569 31.1074 37.5915C32.4049 37.5986 34.3376 37.2731 35.6408 36.7419C35.6408 36.7419 38.7561 38.5849 38.9306 38.5714C39.1049 38.5576 39.1944 38.4229 39.2013 38.3073C39.2082 38.1918 38.2087 35.3151 38.2087 35.3151C40.8837 33.2712 42 31.019 42 28.1476ZM27.0207 23.3814C26.205 23.3814 25.5439 24.0276 25.5439 24.825C25.5439 25.622 26.205 26.2684 27.0207 26.2684C27.8363 26.2684 28.4974 25.6222 28.4974 24.825C28.4974 24.0276 27.8363 23.3814 27.0207 23.3814ZM34.9174 23.3814C34.1018 23.3814 33.4406 24.0276 33.4406 24.825C33.4406 25.622 34.1018 26.2684 34.9174 26.2684C35.7332 26.2684 36.3943 25.6222 36.3943 24.825C36.3943 24.0276 35.7332 23.3814 34.9174 23.3814Z" fill="white" fill-opacity="0.6"/>
</svg>
