<svg width="48" height="48" viewBox="0 0 48 48" fill="none" xmlns="http://www.w3.org/2000/svg">
<rect width="48" height="48" rx="10" fill="#FD6643"/>
<path d="M31.5396 23.9396C31.0988 23.8057 30.7951 23.7143 31.0269 23.1233C31.5265 21.8433 31.5788 20.7363 31.0367 19.9461C30.018 18.4669 27.2359 18.5453 24.0457 19.9069C24.0457 19.9069 23.0433 20.3543 23.3012 19.5445C23.791 17.938 23.7159 16.5927 22.9551 15.8188C21.2245 14.0555 16.6237 15.8841 12.6727 19.9004C9.71429 22.9078 8 26.098 8 28.8539C8 34.1273 14.6449 37.6571 21.1461 37.6571C29.6686 37.6571 35.3371 32.2955 35.3371 28.2955C35.3371 25.8759 33.3355 24.5045 31.5396 23.9396ZM21.1624 35.2931C15.9739 35.8057 11.4971 33.4514 11.1608 30.0261C10.8245 26.6008 14.7559 23.4073 19.9445 22.8914C25.1331 22.3755 29.6098 24.7331 29.9461 28.1584C30.2824 31.5837 26.351 34.7771 21.1624 35.2931ZM40 19.6424C39.9967 14.3167 35.68 10 30.351 10C29.7306 10 29.2245 10.5029 29.2245 11.1265C29.2245 11.7469 29.7273 12.2531 30.351 12.2531C34.4359 12.2531 37.7469 15.5641 37.7469 19.649C37.7469 20.2694 38.2498 20.7755 38.8735 20.7755C39.4939 20.7755 40 20.2727 40 19.649C40 19.649 40 19.6457 40 19.6424ZM35.5265 19.4792C35.0139 16.9682 33.0318 14.9894 30.5208 14.4735C29.9135 14.3494 29.3159 14.7412 29.1918 15.3486C29.0678 15.9559 29.4596 16.5535 30.0669 16.6776C31.6996 17.0106 32.9861 18.2971 33.3224 19.9298C33.4498 20.5371 34.0441 20.929 34.6514 20.8049C35.2588 20.6808 35.6506 20.0865 35.5265 19.4792ZM18.5012 26.2449C16.4114 26.6661 15.0008 28.4163 15.3502 30.16C15.6996 31.9004 17.6784 32.9714 19.7682 32.5535C21.858 32.1322 23.2686 30.382 22.9192 28.6384C22.5698 26.898 20.591 25.8237 18.5012 26.2449Z" fill="white" fill-opacity="0.6"/>
</svg>
