<?xml version="1.0" encoding="utf-8"?>
<!-- Generator: Adobe Illustrator 24.0.1, SVG Export Plug-In . SVG Version: 6.00 Build 0)  -->
<svg version="1.1" id="圖層_1" xmlns="http://www.w3.org/2000/svg" xmlns:xlink="http://www.w3.org/1999/xlink" x="0px" y="0px"
	 viewBox="0 0 250 250" style="enable-background:new 0 0 250 250;" xml:space="preserve">
<style type="text/css">
	.st0{fill:url(#SVGID_1_);}
	.st1{fill:url(#SVGID_2_);}
	.st2{fill:url(#SVGID_3_);}
	.st3{fill:url(#SVGID_4_);}
	.st4{fill:url(#SVGID_5_);}
	.st5{fill:url(#SVGID_6_);}
	.st6{display:none;fill:url(#SVGID_7_);}
	.st7{display:none;fill:#FFFFFF;}
	.st8{font-family:'ArnoPro-Caption';}
	.st9{font-size:60.3731px;}
	.st10{letter-spacing:2;}
	.st11{fill:#FFFFFF;}
</style>
<g>
	<g>
		<g>
			<g>
				<linearGradient id="SVGID_1_" gradientUnits="userSpaceOnUse" x1="6.9255" y1="23.8665" x2="52.098" y2="23.8665">
					<stop  offset="0" style="stop-color:#AD7616"/>
					<stop  offset="1" style="stop-color:#AB7608"/>
				</linearGradient>
				<path class="st0" d="M25.41,15.47L6.93,33.96H52.1L33.61,15.47C31.35,13.21,27.68,13.21,25.41,15.47z"/>
				<linearGradient id="SVGID_2_" gradientUnits="userSpaceOnUse" x1="220.9665" y1="225.4137" x2="241.1517" y2="225.4137">
					<stop  offset="0" style="stop-color:#AD7616"/>
					<stop  offset="1" style="stop-color:#AB7608"/>
				</linearGradient>
				<path class="st1" d="M239.45,229.51L220.97,248v-45.17l18.49,18.49C241.72,223.58,241.72,227.25,239.45,229.51z"/>
				<g>
					
						<linearGradient id="SVGID_3_" gradientUnits="userSpaceOnUse" x1="194.7848" y1="144.6336" x2="194.7848" y2="28.9258" gradientTransform="matrix(0.7071 0.7071 -0.7071 0.7071 88.6832 -109.2593)">
						<stop  offset="0" style="stop-color:#F7F7F7"/>
						<stop  offset="0.0492" style="stop-color:#E0E0E0"/>
						<stop  offset="0.0966" style="stop-color:#ABABAB"/>
						<stop  offset="0.1126" style="stop-color:#919191"/>
						<stop  offset="0.135" style="stop-color:#737373"/>
						<stop  offset="0.1476" style="stop-color:#676767"/>
					</linearGradient>
					<path class="st2" d="M243.31,219.71V96.41c0.03-6.32-2.24-12.38-6.71-16.85l-61.24-61.24c-4.47-4.47-10.53-6.73-16.85-6.71
						H34.94c-3.71,0.01-7.25,1.71-9.92,4.28l-7.86,7.86l213.97,213.97l8.05-8.04C241.49,227.37,243.29,223.41,243.31,219.71z"/>
				</g>
				<linearGradient id="SVGID_4_" gradientUnits="userSpaceOnUse" x1="50.2605" y1="22.3869" x2="257.7951" y2="155.2088">
					<stop  offset="0" style="stop-color:#E3BF55"/>
					<stop  offset="0.1916" style="stop-color:#FFE876"/>
					<stop  offset="0.2243" style="stop-color:#E8D66F"/>
					<stop  offset="0.2259" style="stop-color:#DFC756"/>
					<stop  offset="0.2281" style="stop-color:#D6B63B"/>
					<stop  offset="0.2306" style="stop-color:#CFA925"/>
					<stop  offset="0.2335" style="stop-color:#C99F14"/>
					<stop  offset="0.2371" style="stop-color:#C59709"/>
					<stop  offset="0.2421" style="stop-color:#C39302"/>
					<stop  offset="0.2561" style="stop-color:#C29200"/>
					<stop  offset="0.2698" style="stop-color:#C49606"/>
					<stop  offset="0.2874" style="stop-color:#C9A016"/>
					<stop  offset="0.3072" style="stop-color:#D1B130"/>
					<stop  offset="0.3283" style="stop-color:#DDC955"/>
					<stop  offset="0.3486" style="stop-color:#EAE47F"/>
					<stop  offset="0.4294" style="stop-color:#ECEC88"/>
					<stop  offset="0.4334" style="stop-color:#EEEE9B"/>
					<stop  offset="0.4406" style="stop-color:#F2F2B7"/>
					<stop  offset="0.4469" style="stop-color:#F4F4C8"/>
					<stop  offset="0.4515" style="stop-color:#F5F5CE"/>
					<stop  offset="0.5188" style="stop-color:#F4F4C8"/>
					<stop  offset="0.6086" style="stop-color:#F2F2B7"/>
					<stop  offset="0.7108" style="stop-color:#EDEE9B"/>
					<stop  offset="0.7811" style="stop-color:#EAEB84"/>
					<stop  offset="0.7965" style="stop-color:#E3D16A"/>
					<stop  offset="0.8144" style="stop-color:#DDBC54"/>
					<stop  offset="0.8355" style="stop-color:#D9AB43"/>
					<stop  offset="0.8617" style="stop-color:#D5A038"/>
					<stop  offset="0.8983" style="stop-color:#D49931"/>
					<stop  offset="1" style="stop-color:#D3972F"/>
				</linearGradient>
				<path class="st3" d="M239.45,221.32c2.17,2.16,2.2,5.59,0.22,7.86c2.46-2.74,4.12-6.27,4.13-9.97V95.91
					c0.02-6.32-2.24-12.38-6.71-16.85l-61.24-61.24c-4.46-4.47-10.53-6.73-16.85-6.71H35.44c-3.71,0.02-7.25,1.71-9.92,4.28
					c2.27-2.16,5.85-2.15,8.08,0.08L239.45,221.32z"/>
				<linearGradient id="SVGID_5_" gradientUnits="userSpaceOnUse" x1="72.0717" y1="25.6003" x2="254.0624" y2="142.0742">
					<stop  offset="0" style="stop-color:#434647"/>
					<stop  offset="0.0457" style="stop-color:#3B3E3F"/>
					<stop  offset="0.138" style="stop-color:#303435"/>
					<stop  offset="0.2473" style="stop-color:#2D3132"/>
					<stop  offset="0.5813" style="stop-color:#252929"/>
					<stop  offset="1" style="stop-color:#222525"/>
				</linearGradient>
				<polygon class="st4" points="243.81,108.94 147.87,11.11 55.73,11.11 243.81,198.51 				"/>
				<linearGradient id="SVGID_6_" gradientUnits="userSpaceOnUse" x1="122.973" y1="15.8445" x2="217.261" y2="171.3031">
					<stop  offset="0" style="stop-color:#F46262"/>
					<stop  offset="0.1746" style="stop-color:#BE3F3F"/>
					<stop  offset="0.2863" style="stop-color:#A02B2B"/>
				</linearGradient>
				<polygon class="st5" points="243.81,108.94 147.87,11.11 55.73,11.11 243.81,198.51 				"/>
				<linearGradient id="SVGID_7_" gradientUnits="userSpaceOnUse" x1="122.973" y1="15.8445" x2="217.261" y2="171.3031">
					<stop  offset="0" style="stop-color:#494949"/>
					<stop  offset="0.1418" style="stop-color:#282828"/>
					<stop  offset="0.2863" style="stop-color:#0A0A0A"/>
				</linearGradient>
				<polygon class="st6" points="243.81,108.94 147.87,11.11 55.73,11.11 243.81,198.51 				"/>
				<text transform="matrix(0.6946 0.7194 -0.7194 0.6946 124.8035 60.917)" class="st7 st8 st9 st10">VIP</text>
				<text transform="matrix(0.6946 0.7194 -0.7194 0.6946 107.743 43.8402)" class="st11 st8 st9 st10">FREE</text>
			</g>
		</g>
	</g>
</g>
</svg>
