<?xml version="1.0" encoding="utf-8"?>
<!-- Generator: Adobe Illustrator 24.0.1, SVG Export Plug-In . SVG Version: 6.00 Build 0)  -->
<svg version="1.1" id="圖層_1" xmlns="http://www.w3.org/2000/svg" xmlns:xlink="http://www.w3.org/1999/xlink" x="0px" y="0px"
	 viewBox="0 0 250 250" style="enable-background:new 0 0 250 250;" xml:space="preserve">
<style type="text/css">
	.st0{fill:url(#SVGID_1_);}
	.st1{fill:url(#SVGID_2_);}
	.st2{fill:url(#SVGID_3_);}
	.st3{fill:url(#SVGID_4_);}
	.st4{fill:url(#SVGID_5_);}
	.st5{fill:url(#SVGID_6_);}
	.st6{fill:url(#SVGID_7_);}
	.st7{fill:url(#SVGID_8_);}
	.st8{display:none;fill:#FFFFFF;enable-background:new    ;}
	.st9{font-family:'ArnoPro-Caption';}
	.st10{font-size:60.3731px;}
	.st11{letter-spacing:1;}
</style>
<g>
	<g>
		<g>
			
				<linearGradient id="SVGID_1_" gradientUnits="userSpaceOnUse" x1="6.93" y1="226.1325" x2="52.1" y2="226.1325" gradientTransform="matrix(1 0 0 -1 0 250)">
				<stop  offset="0" style="stop-color:#AD7616"/>
				<stop  offset="1" style="stop-color:#AB7608"/>
			</linearGradient>
			<path class="st0" d="M25.4,15.5L6.9,34h45.2L33.6,15.5C31.4,13.2,27.7,13.2,25.4,15.5z"/>
			
				<linearGradient id="SVGID_2_" gradientUnits="userSpaceOnUse" x1="220.97" y1="24.585" x2="241.1537" y2="24.585" gradientTransform="matrix(1 0 0 -1 0 250)">
				<stop  offset="0" style="stop-color:#AD7616"/>
				<stop  offset="1" style="stop-color:#AB7608"/>
			</linearGradient>
			<path class="st1" d="M239.4,229.5L221,248v-45.2l18.5,18.5C241.7,223.6,241.7,227.3,239.4,229.5z"/>
			<g>
				
					<linearGradient id="SVGID_3_" gradientUnits="userSpaceOnUse" x1="194.7823" y1="105.3723" x2="194.7823" y2="221.0773" gradientTransform="matrix(0.7071 0.7071 0.7071 -0.7071 -88.0918 67.5157)">
					<stop  offset="0" style="stop-color:#F7F7F7"/>
					<stop  offset="4.920000e-02" style="stop-color:#E0E0E0"/>
					<stop  offset="9.660001e-02" style="stop-color:#ABABAB"/>
					<stop  offset="0.1126" style="stop-color:#919191"/>
					<stop  offset="0.135" style="stop-color:#737373"/>
					<stop  offset="0.1476" style="stop-color:#676767"/>
				</linearGradient>
				<path class="st2" d="M243.3,219.7V96.4c0-6.3-2.2-12.4-6.7-16.8l-61.2-61.2c-4.5-4.5-10.5-6.7-16.9-6.7H34.9
					c-3.7,0-7.3,1.7-9.9,4.3l-7.9,7.9l214,214l8.1-8C241.5,227.4,243.3,223.4,243.3,219.7z"/>
			</g>
			
				<linearGradient id="SVGID_4_" gradientUnits="userSpaceOnUse" x1="50.2582" y1="227.6095" x2="257.7928" y2="94.7876" gradientTransform="matrix(1 0 0 -1 0 250)">
				<stop  offset="0" style="stop-color:#E3BF55"/>
				<stop  offset="0.1916" style="stop-color:#FFE876"/>
				<stop  offset="0.2243" style="stop-color:#E8D66F"/>
				<stop  offset="0.2259" style="stop-color:#DFC756"/>
				<stop  offset="0.2281" style="stop-color:#D6B63B"/>
				<stop  offset="0.2306" style="stop-color:#CFA925"/>
				<stop  offset="0.2335" style="stop-color:#C99F14"/>
				<stop  offset="0.2371" style="stop-color:#C59709"/>
				<stop  offset="0.2421" style="stop-color:#C39302"/>
				<stop  offset="0.2561" style="stop-color:#C29200"/>
				<stop  offset="0.2698" style="stop-color:#C49606"/>
				<stop  offset="0.2874" style="stop-color:#C9A016"/>
				<stop  offset="0.3072" style="stop-color:#D1B130"/>
				<stop  offset="0.3283" style="stop-color:#DDC955"/>
				<stop  offset="0.3486" style="stop-color:#EAE47F"/>
				<stop  offset="0.4294" style="stop-color:#ECEC88"/>
				<stop  offset="0.4334" style="stop-color:#EEEE9B"/>
				<stop  offset="0.4406" style="stop-color:#F2F2B7"/>
				<stop  offset="0.4469" style="stop-color:#F4F4C8"/>
				<stop  offset="0.4515" style="stop-color:#F5F5CE"/>
				<stop  offset="0.5188" style="stop-color:#F4F4C8"/>
				<stop  offset="0.6086" style="stop-color:#F2F2B7"/>
				<stop  offset="0.7108" style="stop-color:#EDEE9B"/>
				<stop  offset="0.7811" style="stop-color:#EAEB84"/>
				<stop  offset="0.7965" style="stop-color:#E3D16A"/>
				<stop  offset="0.8144" style="stop-color:#DDBC54"/>
				<stop  offset="0.8355" style="stop-color:#D9AB43"/>
				<stop  offset="0.8617" style="stop-color:#D5A038"/>
				<stop  offset="0.8983" style="stop-color:#D49931"/>
				<stop  offset="1" style="stop-color:#D3972F"/>
			</linearGradient>
			<path class="st3" d="M239.4,221.3c2.2,2.2,2.2,5.6,0.2,7.9c2.5-2.7,4.1-6.3,4.1-10V95.9c0-6.3-2.2-12.4-6.7-16.8l-61.2-61.2
				c-4.5-4.5-10.5-6.7-16.9-6.7H35.4c-3.7,0-7.3,1.7-9.9,4.3c2.3-2.2,5.9-2.1,8.1,0.1L239.4,221.3z"/>
			
				<linearGradient id="SVGID_5_" gradientUnits="userSpaceOnUse" x1="72.0726" y1="224.4011" x2="254.0633" y2="107.9272" gradientTransform="matrix(1 0 0 -1 0 250)">
				<stop  offset="0" style="stop-color:#434647"/>
				<stop  offset="4.570000e-02" style="stop-color:#3B3E3F"/>
				<stop  offset="0.138" style="stop-color:#303435"/>
				<stop  offset="0.2473" style="stop-color:#2D3132"/>
				<stop  offset="0.5813" style="stop-color:#252929"/>
				<stop  offset="1" style="stop-color:#222525"/>
			</linearGradient>
			<polygon class="st4" points="243.8,108.9 147.9,11.1 55.7,11.1 243.8,198.5 			"/>
			
				<linearGradient id="SVGID_6_" gradientUnits="userSpaceOnUse" x1="122.9736" y1="234.1559" x2="217.2616" y2="78.6973" gradientTransform="matrix(1 0 0 -1 0 250)">
				<stop  offset="0" style="stop-color:#F46262"/>
				<stop  offset="0.1746" style="stop-color:#BE3F3F"/>
				<stop  offset="0.2863" style="stop-color:#A02B2B"/>
			</linearGradient>
			<polygon class="st5" points="243.8,108.9 147.9,11.1 55.7,11.1 243.8,198.5 			"/>
			
				<linearGradient id="SVGID_7_" gradientUnits="userSpaceOnUse" x1="122.9736" y1="234.1559" x2="217.2616" y2="78.6973" gradientTransform="matrix(1 0 0 -1 0 250)">
				<stop  offset="0" style="stop-color:#494949"/>
				<stop  offset="0.1418" style="stop-color:#282828"/>
				<stop  offset="0.2863" style="stop-color:#0A0A0A"/>
			</linearGradient>
			<polygon class="st6" points="243.8,108.9 147.9,11.1 55.7,11.1 243.8,198.5 			"/>
			
				<linearGradient id="SVGID_8_" gradientUnits="userSpaceOnUse" x1="122.9736" y1="234.1559" x2="217.2616" y2="78.6973" gradientTransform="matrix(1 0 0 -1 0 250)">
				<stop  offset="0" style="stop-color:#D363EA"/>
				<stop  offset="0.2414" style="stop-color:#8D2BA5"/>
			</linearGradient>
			<polygon class="st7" points="243.8,108.9 147.9,11.1 55.7,11.1 243.8,198.5 			"/>
			<text transform="matrix(0.6946 0.7194 -0.7194 0.6946 124.8032 60.9171)" class="st8 st9 st10 st11">VIP</text>
			<text transform="matrix(0.6946 0.7194 -0.7194 0.6946 107.7427 43.8402)" class="st8 st9 st10 st11">FREE</text>
		</g>
	</g>
</g>
</svg>
