<svg width="56" height="56" viewBox="0 0 56 56" fill="none" xmlns="http://www.w3.org/2000/svg">
<rect width="56" height="56" rx="28" fill="url(#paint0_linear_403_15705)"/>
<path d="M38 21C38 22.6569 36.6569 24 35 24C34.0073 24 33.1271 23.5178 32.5811 22.7748L24.1399 28.0003L32.5808 33.2256C33.1268 32.4824 34.0071 32 35 32C36.6569 32 38 33.3431 38 35C38 36.6569 36.6569 38 35 38C33.3431 38 32 36.6569 32 35C32 34.7678 32.0264 34.5417 32.0763 34.3247L23.7604 29.1767C23.3029 30.2487 22.2392 31 21 31C19.3431 31 18 29.6569 18 28C18 26.3431 19.3431 25 21 25C22.2394 25 23.3032 25.7516 23.7606 26.8238L32.0765 21.6759C32.0264 21.4587 32 21.2324 32 21C32 19.3431 33.3431 18 35 18C36.6569 18 38 19.3431 38 21Z" fill="white"/>
<defs>
<linearGradient id="paint0_linear_403_15705" x1="56" y1="0" x2="0" y2="0" gradientUnits="userSpaceOnUse">
<stop stop-color="#FF898A"/>
<stop offset="1" stop-color="#FE568A"/>
</linearGradient>
</defs>
</svg>
