<svg width="64" height="64" viewBox="0 0 64 64" fill="none" xmlns="http://www.w3.org/2000/svg">
<path d="M4.74428 11.9382L9.37935 16.2924C9.53902 16.4424 9.61885 16.5173 9.71297 16.5358C9.75536 16.5441 9.79896 16.5441 9.84135 16.5358C9.93548 16.5173 10.0153 16.4424 10.175 16.2924L14.81 11.9382C16.1142 10.7131 16.2725 8.69713 15.1757 7.28344L14.9695 7.01762C13.9427 5.69421 12.1065 5.5801 10.9147 6.51877L9.77734 7.33268L8.7395 6.60125C7.55266 5.5746 5.64079 5.65665 4.58486 7.01763L4.37862 7.28344C3.28179 8.69713 3.44016 10.7131 4.74428 11.9382Z" fill="url(#paint0_linear_403_17861)"/>
<rect x="12.4443" y="16" width="44.4444" height="28.4444" rx="2" fill="url(#paint1_linear_403_17861)"/>
<path d="M20.2024 36.8887H8.88867L10.222 51.1109L26.1226 56.8929C28.4735 57.7478 31.0594 57.6905 33.3701 56.7324L44.9706 51.9225C46.3535 51.349 46.6393 49.5153 45.4964 48.5482L45.1829 48.2829C43.3409 46.7243 40.826 46.2243 38.5279 46.9597L32.1672 48.9951C31.4855 49.2132 30.7484 49.1805 30.0887 48.9027L22.9586 45.9006C22.7815 45.826 22.6664 45.6527 22.6664 45.4606C22.6664 45.1628 22.9362 44.9377 23.2292 44.991L30.659 46.3419C31.6926 46.5298 32.7125 45.9511 33.0813 44.9675C33.4757 43.9159 33.0033 42.7371 31.9919 42.2488L21.5067 37.187C21.0999 36.9907 20.6541 36.8887 20.2024 36.8887Z" fill="url(#paint2_linear_403_17861)"/>
<rect x="3.55566" y="32.8887" width="8.88889" height="23.1111" rx="2" fill="url(#paint3_linear_403_17861)"/>
<path d="M46.8531 43.1907L52.0032 48.0286C52.1806 48.1953 52.2693 48.2786 52.3739 48.2991C52.421 48.3084 52.4694 48.3084 52.5165 48.2991C52.6211 48.2786 52.7098 48.1953 52.8872 48.0286L58.0373 43.1907C59.4863 41.8295 59.6623 39.5895 58.4436 38.0187L58.2144 37.7234C57.0736 36.2529 55.0334 36.1261 53.7092 37.1691L52.4454 38.0734L51.2923 37.2607C49.9736 36.12 47.8493 36.2112 46.676 37.7234L46.4468 38.0187C45.2281 39.5895 45.4041 41.8295 46.8531 43.1907Z" fill="url(#paint4_linear_403_17861)"/>
<path d="M24.901 36.4434H28.341L31.909 24.5234H28.997L27.653 29.9634C27.317 31.2434 27.077 32.4594 26.725 33.7714H26.645C26.309 32.4594 26.069 31.2434 25.717 29.9634L24.357 24.5234H21.333L24.901 36.4434Z" fill="url(#paint5_linear_403_17861)"/>
<path d="M33.1343 36.4434H35.9983V24.5234H33.1343V36.4434Z" fill="url(#paint6_linear_403_17861)"/>
<path d="M38.728 36.4434H41.592V32.4914H42.984C45.512 32.4914 47.688 31.2434 47.688 28.4114C47.688 25.4674 45.528 24.5234 42.92 24.5234H38.728V36.4434ZM41.592 30.2354V26.7954H42.76C44.136 26.7954 44.904 27.2114 44.904 28.4114C44.904 29.5794 44.232 30.2354 42.84 30.2354H41.592Z" fill="url(#paint7_linear_403_17861)"/>
<defs>
<linearGradient id="paint0_linear_403_17861" x1="9.77716" y1="5.9043" x2="9.77716" y2="16.5421" gradientUnits="userSpaceOnUse">
<stop stop-color="#FFCCD5"/>
<stop offset="0.0001" stop-color="#FFD9E1"/>
<stop offset="1" stop-color="#FF71A2"/>
</linearGradient>
<linearGradient id="paint1_linear_403_17861" x1="56.4443" y1="15.5556" x2="12.4443" y2="44.4444" gradientUnits="userSpaceOnUse">
<stop stop-color="#FFF8E6"/>
<stop offset="1" stop-color="#F2DAB7"/>
<stop offset="1" stop-color="#EED5B1"/>
</linearGradient>
<linearGradient id="paint2_linear_403_17861" x1="46.6665" y1="50.222" x2="9.77756" y2="58.222" gradientUnits="userSpaceOnUse">
<stop stop-color="#FFE8F3"/>
<stop offset="1" stop-color="#F5C1BB"/>
</linearGradient>
<linearGradient id="paint3_linear_403_17861" x1="8.00011" y1="32.8887" x2="8.00011" y2="55.9998" gradientUnits="userSpaceOnUse">
<stop stop-color="#FFFBFE"/>
<stop offset="1" stop-color="#FFC9ED"/>
</linearGradient>
<linearGradient id="paint4_linear_403_17861" x1="52.4452" y1="36.4863" x2="52.4452" y2="48.3061" gradientUnits="userSpaceOnUse">
<stop stop-color="#FFCCD5"/>
<stop offset="0.0001" stop-color="#FFD9E1"/>
<stop offset="1" stop-color="#FF71A2"/>
</linearGradient>
<linearGradient id="paint5_linear_403_17861" x1="47.9997" y1="23.1102" x2="23.5552" y2="38.6658" gradientUnits="userSpaceOnUse">
<stop stop-color="#FAA091"/>
<stop offset="1" stop-color="#F8AF72"/>
</linearGradient>
<linearGradient id="paint6_linear_403_17861" x1="47.9997" y1="23.1102" x2="23.5552" y2="38.6658" gradientUnits="userSpaceOnUse">
<stop stop-color="#FAA091"/>
<stop offset="1" stop-color="#F8AF72"/>
</linearGradient>
<linearGradient id="paint7_linear_403_17861" x1="47.9997" y1="23.1102" x2="23.5552" y2="38.6658" gradientUnits="userSpaceOnUse">
<stop stop-color="#FAA091"/>
<stop offset="1" stop-color="#F8AF72"/>
</linearGradient>
</defs>
</svg>
