<svg width="24" height="24" viewBox="0 0 24 24" fill="none" xmlns="http://www.w3.org/2000/svg">
<path d="M5 18H19V18C19 18.9428 19 19.4142 18.7071 19.7071C18.4142 20 17.9428 20 17 20H7C6.05719 20 5.58579 20 5.29289 19.7071C5 19.4142 5 18.9428 5 18V18Z" fill="#6B4FF5"/>
<path d="M13 5C13 5.36851 12.8007 5.69046 12.504 5.86392L15.5 11L20.3777 8.78285C20.1475 8.59964 20 8.31705 20 8C20 7.44772 20.4477 7 21 7C21.5523 7 22 7.44772 22 8C22 8.55229 21.5523 9 21 9C20.9607 9 20.922 8.99774 20.8839 8.99333L19 17H5L3.11608 8.99333C3.078 8.99774 3.03926 9 3 9C2.44772 9 2 8.55229 2 8C2 7.44772 2.44772 7 3 7C3.55228 7 4 7.44772 4 8C4 8.30818 3.86059 8.58381 3.64139 8.76725L9 11L11.5527 5.89462C11.225 5.73044 11 5.3915 11 5C11 4.44772 11.4477 4 12 4C12.5523 4 13 4.44772 13 5Z" fill="url(#paint0_linear_304_619)"/>
<defs>
<linearGradient id="paint0_linear_304_619" x1="12" y1="4" x2="12" y2="17" gradientUnits="userSpaceOnUse">
<stop stop-color="#9E8AE5"/>
<stop offset="1" stop-color="#694CF6"/>
</linearGradient>
</defs>
</svg>
