<svg width="24" height="24" viewBox="0 0 24 24" fill="none" xmlns="http://www.w3.org/2000/svg">
<path d="M4 14C4 12.8954 4.89543 12 6 12V12C7.10457 12 8 12.8954 8 14V17C8 18.1046 7.10457 19 6 19V19C4.89543 19 4 18.1046 4 17V14Z" fill="#FFCFCF"/>
<path d="M16 14C16 12.8954 16.8954 12 18 12V12C19.1046 12 20 12.8954 20 14V17C20 18.1046 19.1046 19 18 19V19C16.8954 19 16 18.1046 16 17V14Z" fill="#FFCFCF"/>
<path fill-rule="evenodd" clip-rule="evenodd" d="M16.9094 7.3004C17.8407 8.34801 18.494 9.66859 18.8012 11.1082C18.5461 11.0377 18.2775 11 18 11C16.3431 11 15 12.3431 15 14V17C15 18.6569 16.3431 20 18 20C19.6569 20 21 18.6569 21 17V13C21 10.3834 20.0771 7.85363 18.4043 5.97168C16.728 4.08589 14.4275 3 12 3C9.5725 3 7.272 4.08588 5.59574 5.97167C3.92289 7.85363 3 10.3834 3 13V17C3 18.6569 4.34315 20 6 20C7.65685 20 9 18.6569 9 17V14C9 12.3431 7.65685 11 6 11C5.72254 11 5.45387 11.0377 5.19884 11.1082C5.50601 9.66859 6.15935 8.34801 7.09056 7.3004C8.41488 5.81054 10.184 5 12 5C13.816 5 15.5851 5.81054 16.9094 7.3004ZM5 17C5 17.5523 5.44772 18 6 18C6.55228 18 7 17.5523 7 17V14C7 13.4477 6.55228 13 6 13C5.44772 13 5 13.4477 5 14V17ZM19 14C19 13.4477 18.5523 13 18 13C17.4477 13 17 13.4477 17 14V17C17 17.5523 17.4477 18 18 18C18.5523 18 19 17.5523 19 17V14Z" fill="url(#paint0_linear_304_625)"/>
<defs>
<linearGradient id="paint0_linear_304_625" x1="12" y1="22" x2="12" y2="4" gradientUnits="userSpaceOnUse">
<stop stop-color="#FF4980"/>
<stop offset="1" stop-color="#FA8699"/>
</linearGradient>
</defs>
</svg>
