<svg width="24" height="24" viewBox="0 0 24 24" fill="none" xmlns="http://www.w3.org/2000/svg">
<path d="M21.8184 6.4541C21.8184 5.90182 21.3706 5.4541 20.8184 5.4541H8.02266C7.3152 5.4541 6.83144 6.16863 7.09419 6.82549L12.8396 21.1891C12.9915 21.5688 13.3592 21.8177 13.7681 21.8177H20.8184C21.3706 21.8177 21.8184 21.37 21.8184 20.8177V6.4541Z" fill="url(#paint0_linear_304_614)"/>
<path d="M18.02 12.764C17.786 13.424 17.456 13.97 17.042 14.426C16.58 13.952 16.22 13.394 15.962 12.764H18.02ZM19.742 12.764V12.068H17.132L17.648 11.906C17.576 11.66 17.396 11.276 17.24 11L16.478 11.222C16.616 11.486 16.748 11.822 16.814 12.068H14.282V12.764H15.224C15.548 13.61 15.962 14.33 16.502 14.924C15.878 15.41 15.104 15.752 14.168 15.986C14.312 16.148 14.522 16.484 14.6 16.652C15.566 16.376 16.37 15.98 17.03 15.44C17.66 15.968 18.434 16.364 19.376 16.616C19.484 16.418 19.694 16.106 19.856 15.95C18.962 15.74 18.206 15.392 17.588 14.912C18.11 14.33 18.518 13.628 18.824 12.764H19.742Z" fill="#9EFDFC"/>
<path d="M2.18164 3.18164C2.18164 2.62936 2.62936 2.18164 3.18164 2.18164L10.1882 2.18164C10.6186 2.18164 11.0007 2.45707 11.1368 2.86541L15.9247 17.229C16.1406 17.8766 15.6586 18.5453 14.976 18.5453H3.18164C2.62936 18.5453 2.18164 18.0976 2.18164 17.5453V3.18164Z" fill="url(#paint1_linear_304_614)"/>
<path d="M6.76417 9.2975C6.91817 8.7585 7.07217 8.1705 7.20517 7.6035H7.24017C7.38717 8.1635 7.52717 8.7585 7.68817 9.2975L7.84217 9.8645H6.61017L6.76417 9.2975ZM4.97217 11.9995H6.02217L6.38617 10.6695H8.06617L8.43017 11.9995H9.51517L7.84917 6.8125H6.63117L4.97217 11.9995Z" fill="#9EFDFC"/>
<defs>
<linearGradient id="paint0_linear_304_614" x1="14.182" y1="5.4541" x2="14.182" y2="21.8177" gradientUnits="userSpaceOnUse">
<stop stop-color="#3CFCFF"/>
<stop offset="0.0001" stop-color="#2EE3E7"/>
<stop offset="1" stop-color="#009EAD"/>
</linearGradient>
<linearGradient id="paint1_linear_304_614" x1="9.27255" y1="2.18164" x2="9.27255" y2="18.5453" gradientUnits="userSpaceOnUse">
<stop stop-color="#3CFCFF"/>
<stop offset="0.0001" stop-color="#46F7FB"/>
<stop offset="1" stop-color="#07C3D5"/>
</linearGradient>
</defs>
</svg>
