<svg width="24" height="24" viewBox="0 0 24 24" fill="none" xmlns="http://www.w3.org/2000/svg">
<path fill-rule="evenodd" clip-rule="evenodd" d="M12.0004 3C9.45988 3 7.40039 5.05949 7.40039 7.6V9.6C5.90742 9.60654 5.10588 9.6653 4.58579 10.1854C4 10.7712 4 11.714 4 13.5996V15.5996C4 18.428 4 19.8423 4.87868 20.7209C5.75736 21.5996 7.17157 21.5996 10 21.5996H14C16.8284 21.5996 18.2426 21.5996 19.1213 20.7209C20 19.8423 20 18.428 20 15.5996V13.5996C20 11.714 20 10.7712 19.4142 10.1854C18.8942 9.66539 18.0929 9.607 16.6004 9.60044V7.6C16.6004 5.05949 14.5409 3 12.0004 3ZM15.4004 9.59961V7.6C15.4004 5.72223 13.8782 4.2 12.0004 4.2C10.1226 4.2 8.60039 5.72223 8.60039 7.6V9.59961H15.4004Z" fill="url(#paint0_linear_304_604)"/>
<circle cx="12" cy="15.6006" r="2" fill="#A3BFFF"/>
<defs>
<linearGradient id="paint0_linear_304_604" x1="12" y1="3" x2="12" y2="21.5996" gradientUnits="userSpaceOnUse">
<stop stop-color="#9EB9FD"/>
<stop offset="1" stop-color="#4186FC"/>
</linearGradient>
</defs>
</svg>
