<svg width="24" height="24" viewBox="0 0 24 24" fill="none" xmlns="http://www.w3.org/2000/svg">
<path fill-rule="evenodd" clip-rule="evenodd" d="M18.781 17.625L17.2193 16.3756L19.9195 13.0003L13.0001 13.0003C12.4479 13.0003 12.0001 12.5526 12.0001 12.0003C12.0001 11.448 12.4479 11.0003 13.0001 11.0003L19.9195 11.0003L17.2193 7.625L18.781 6.37561L23.2808 12.0003L18.781 17.625Z" fill="url(#paint0_linear_304_1444)"/>
<path fill-rule="evenodd" clip-rule="evenodd" d="M5.18114 20.3312C6.03696 20.3105 7.1703 20.124 8.82199 19.8487L10.4932 19.5702C11.3167 19.433 11.8427 19.3434 12.2274 19.2289C12.5853 19.1224 12.699 19.0272 12.763 18.9517C12.827 18.8761 12.9022 18.7483 12.9485 18.3777C12.9982 17.9795 13 17.4459 13 16.611L13 15.8676L15 15.8676L15 16.611C15 16.6308 15 16.6504 15 16.67C15 17.4287 15.0001 18.0886 14.933 18.6255C14.8608 19.204 14.699 19.7604 14.2891 20.2444C13.8791 20.7284 13.3568 20.9794 12.798 21.1458C12.2794 21.3002 11.6286 21.4086 10.8802 21.5333C10.8609 21.5365 10.8415 21.5398 10.822 21.543L9.07467 21.8342C7.51791 22.0937 6.24392 22.3061 5.22945 22.3306C4.17055 22.3562 3.21145 22.1854 2.4145 21.5102C1.61754 20.8351 1.29138 19.9171 1.14253 18.8684C0.999926 17.8638 0.999957 16.5722 0.999994 14.994L0.999994 9.00512C0.999957 7.42688 0.999927 6.13532 1.14253 5.13062C1.29138 4.08192 1.61754 3.16396 2.4145 2.48884C3.21145 1.81371 4.17055 1.6429 5.22945 1.66848C6.24392 1.69299 7.51791 1.90535 9.07467 2.16485L10.8802 2.46577C11.6286 2.59045 12.2795 2.6989 12.798 2.85329C13.3568 3.01963 13.8791 3.2707 14.2891 3.75466C14.699 4.23863 14.8608 4.79509 14.933 5.37358C15.0001 5.91049 15 6.57036 15 7.32902L15 7.93357L13 7.93357L13 7.38804C13 6.55319 12.9982 6.01962 12.9485 5.62136C12.9022 5.25081 12.827 5.12294 12.763 5.04741C12.699 4.97189 12.5853 4.87669 12.2274 4.77014C11.8427 4.65562 11.3167 4.56611 10.4932 4.42886L8.82199 4.15033C7.1703 3.87505 6.03696 3.68857 5.18115 3.6679C4.35328 3.6479 3.97117 3.7913 3.70725 4.01487C3.44333 4.23845 3.23905 4.59179 3.12268 5.41168C3.00238 6.25924 3 7.40782 3 9.0823L3 14.9168C3 16.5912 3.00238 17.7398 3.12268 18.5874C3.23905 19.4073 3.44333 19.7606 3.70725 19.9842C3.97116 20.2078 4.35328 20.3512 5.18114 20.3312Z" fill="url(#paint1_linear_304_1444)"/>
<defs>
<linearGradient id="paint0_linear_304_1444" x1="17.6404" y1="17.625" x2="17.6405" y2="6.37561" gradientUnits="userSpaceOnUse">
<stop stop-color="#3CFCFF"/>
<stop offset="0.0001" stop-color="#2EE3E7"/>
<stop offset="1" stop-color="#07C3D5"/>
</linearGradient>
<linearGradient id="paint1_linear_304_1444" x1="8" y1="22.333" x2="8" y2="1.66606" gradientUnits="userSpaceOnUse">
<stop stop-color="#3CFCFF"/>
<stop offset="0.0001" stop-color="#2EE3E7"/>
<stop offset="1" stop-color="#07C3D5"/>
</linearGradient>
</defs>
</svg>
