<svg width="24" height="24" viewBox="0 0 24 24" fill="none" xmlns="http://www.w3.org/2000/svg">
<path d="M10.9946 3.68191C11.3824 2.7727 12.6176 2.7727 13.0054 3.68191L14.7826 7.84761C14.9425 8.22261 15.2817 8.48007 15.6725 8.52317L20.0133 9.00187C20.9608 9.10636 21.3424 10.3337 20.6347 11.0001L17.3922 14.0534C17.1003 14.3282 16.9707 14.7448 17.0523 15.1465L17.9579 19.608C18.1556 20.5818 17.1564 21.3404 16.3311 20.843L12.55 18.5643C12.2096 18.3592 11.7904 18.3592 11.45 18.5643L7.66888 20.843C6.84361 21.3404 5.84438 20.5818 6.04205 19.608L6.94773 15.1465C7.02925 14.7448 6.89971 14.3282 6.60782 14.0534L3.36528 11.0001C2.65756 10.3337 3.03923 9.10636 3.98667 9.00187L8.32754 8.52317C8.7183 8.48007 9.05745 8.22261 9.21743 7.84761L10.9946 3.68191Z" fill="url(#paint0_linear_304_611)"/>
<path d="M11.6649 10.2273C11.7941 9.92423 12.2059 9.92423 12.3351 10.2273L12.9275 11.6159C12.9808 11.7409 13.0939 11.8267 13.2242 11.8411L14.6711 12.0006C14.9869 12.0355 15.1141 12.4446 14.8782 12.6667L13.7974 13.6845C13.7001 13.7761 13.6569 13.9149 13.6841 14.0488L13.986 15.536C14.0519 15.8606 13.7188 16.1135 13.4437 15.9477L12.1833 15.1881C12.0699 15.1197 11.9301 15.1197 11.8167 15.1881L10.5563 15.9477C10.2812 16.1135 9.94813 15.8606 10.014 15.536L10.3159 14.0488C10.3431 13.9149 10.2999 13.7761 10.2026 13.6845L9.12176 12.6667C8.88585 12.4446 9.01308 12.0355 9.32889 12.0006L10.7758 11.8411C10.9061 11.8267 11.0192 11.7409 11.0725 11.6159L11.6649 10.2273Z" fill="#FEEDCE"/>
<defs>
<linearGradient id="paint0_linear_304_611" x1="12" y1="3" x2="12" y2="21" gradientUnits="userSpaceOnUse">
<stop stop-color="#F8D33B"/>
<stop offset="1" stop-color="#FB9126"/>
</linearGradient>
</defs>
</svg>
